<mxfile host="app.diagrams.net" modified="2022-04-03T14:15:07.110Z" agent="5.0 (Windows NT 10.0; Win64; x64) AppleWebKit/537.36 (KHTML, like Gecko) Chrome/100.0.4896.60 Safari/537.36" etag="mtKlKCDhy_37xGvqDaew" version="17.4.0" type="github">
  <diagram id="G_QziHxkWVlu0A3kxlXd" name="Page-1">
    <mxGraphModel dx="2278" dy="1498" grid="1" gridSize="12" guides="1" tooltips="1" connect="1" arrows="1" fold="1" page="1" pageScale="1" pageWidth="1169" pageHeight="827" math="0" shadow="0">
      <root>
        <mxCell id="0" />
        <mxCell id="1" parent="0" />
        <mxCell id="XO_tC2_TJ7MmgfRz-NDF-3" value="Учебный центр &#xa;" style="swimlane;fontStyle=0;childLayout=stackLayout;horizontal=1;startSize=30;horizontalStack=0;resizeParent=1;resizeParentMax=0;resizeLast=0;collapsible=1;marginBottom=0;" parent="1" vertex="1">
          <mxGeometry x="80" y="220" width="140" height="110" as="geometry" />
        </mxCell>
        <mxCell id="XO_tC2_TJ7MmgfRz-NDF-4" value="+название" style="text;strokeColor=none;fillColor=none;align=left;verticalAlign=middle;spacingLeft=4;spacingRight=4;overflow=hidden;points=[[0,0.5],[1,0.5]];portConstraint=eastwest;rotatable=0;" parent="XO_tC2_TJ7MmgfRz-NDF-3" vertex="1">
          <mxGeometry y="30" width="140" height="30" as="geometry" />
        </mxCell>
        <mxCell id="XO_tC2_TJ7MmgfRz-NDF-5" value="+адрес" style="text;strokeColor=none;fillColor=none;align=left;verticalAlign=middle;spacingLeft=4;spacingRight=4;overflow=hidden;points=[[0,0.5],[1,0.5]];portConstraint=eastwest;rotatable=0;" parent="XO_tC2_TJ7MmgfRz-NDF-3" vertex="1">
          <mxGeometry y="60" width="140" height="30" as="geometry" />
        </mxCell>
        <mxCell id="XO_tC2_TJ7MmgfRz-NDF-6" value="+телефон" style="text;strokeColor=none;fillColor=none;align=left;verticalAlign=middle;spacingLeft=4;spacingRight=4;overflow=hidden;points=[[0,0.5],[1,0.5]];portConstraint=eastwest;rotatable=0;" parent="XO_tC2_TJ7MmgfRz-NDF-3" vertex="1">
          <mxGeometry y="90" width="140" height="20" as="geometry" />
        </mxCell>
        <mxCell id="XO_tC2_TJ7MmgfRz-NDF-12" value="Студент" style="swimlane;fontStyle=0;childLayout=stackLayout;horizontal=1;startSize=26;fillColor=none;horizontalStack=0;resizeParent=1;resizeParentMax=0;resizeLast=0;collapsible=1;marginBottom=0;" parent="1" vertex="1">
          <mxGeometry x="30" y="500" width="160" height="104" as="geometry" />
        </mxCell>
        <mxCell id="XO_tC2_TJ7MmgfRz-NDF-14" value="+" style="text;strokeColor=none;fillColor=none;align=left;verticalAlign=top;spacingLeft=4;spacingRight=4;overflow=hidden;rotatable=0;points=[[0,0.5],[1,0.5]];portConstraint=eastwest;" parent="XO_tC2_TJ7MmgfRz-NDF-12" vertex="1">
          <mxGeometry y="26" width="160" height="26" as="geometry" />
        </mxCell>
        <mxCell id="XO_tC2_TJ7MmgfRz-NDF-13" value="+ имя" style="text;strokeColor=none;fillColor=none;align=left;verticalAlign=top;spacingLeft=4;spacingRight=4;overflow=hidden;rotatable=0;points=[[0,0.5],[1,0.5]];portConstraint=eastwest;" parent="XO_tC2_TJ7MmgfRz-NDF-12" vertex="1">
          <mxGeometry y="52" width="160" height="26" as="geometry" />
        </mxCell>
        <mxCell id="XO_tC2_TJ7MmgfRz-NDF-15" value="+" style="text;strokeColor=none;fillColor=none;align=left;verticalAlign=top;spacingLeft=4;spacingRight=4;overflow=hidden;rotatable=0;points=[[0,0.5],[1,0.5]];portConstraint=eastwest;" parent="XO_tC2_TJ7MmgfRz-NDF-12" vertex="1">
          <mxGeometry y="78" width="160" height="26" as="geometry" />
        </mxCell>
        <mxCell id="XO_tC2_TJ7MmgfRz-NDF-18" value="Методист &#xa;+имя&#xa;" style="swimlane;fontStyle=0;childLayout=stackLayout;horizontal=1;startSize=50;horizontalStack=0;resizeParent=1;resizeParentMax=0;resizeLast=0;collapsible=1;marginBottom=0;align=center;fontSize=14;" parent="1" vertex="1">
          <mxGeometry x="408" y="260" width="332" height="140" as="geometry" />
        </mxCell>
        <mxCell id="XO_tC2_TJ7MmgfRz-NDF-19" value="+добавть преподавателя" style="text;strokeColor=none;fillColor=none;spacingLeft=4;spacingRight=4;overflow=hidden;rotatable=0;points=[[0,0.5],[1,0.5]];portConstraint=eastwest;fontSize=12;" parent="XO_tC2_TJ7MmgfRz-NDF-18" vertex="1">
          <mxGeometry y="50" width="332" height="30" as="geometry" />
        </mxCell>
        <mxCell id="XO_tC2_TJ7MmgfRz-NDF-20" value="+сздать/удалить преподаваеля" style="text;strokeColor=none;fillColor=none;spacingLeft=4;spacingRight=4;overflow=hidden;rotatable=0;points=[[0,0.5],[1,0.5]];portConstraint=eastwest;fontSize=12;" parent="XO_tC2_TJ7MmgfRz-NDF-18" vertex="1">
          <mxGeometry y="80" width="332" height="30" as="geometry" />
        </mxCell>
        <mxCell id="XO_tC2_TJ7MmgfRz-NDF-21" value="+создать группу " style="text;strokeColor=none;fillColor=none;spacingLeft=4;spacingRight=4;overflow=hidden;rotatable=0;points=[[0,0.5],[1,0.5]];portConstraint=eastwest;fontSize=12;" parent="XO_tC2_TJ7MmgfRz-NDF-18" vertex="1">
          <mxGeometry y="110" width="332" height="30" as="geometry" />
        </mxCell>
        <mxCell id="XO_tC2_TJ7MmgfRz-NDF-22" value="" style="shape=flexArrow;endArrow=classic;html=1;rounded=0;endWidth=12;endSize=6.34;exitX=0;exitY=0.5;exitDx=0;exitDy=0;" parent="1" source="XO_tC2_TJ7MmgfRz-NDF-19" edge="1">
          <mxGeometry width="50" height="50" relative="1" as="geometry">
            <mxPoint x="280" y="370" as="sourcePoint" />
            <mxPoint x="230" y="325" as="targetPoint" />
            <Array as="points">
              <mxPoint x="350" y="325" />
            </Array>
          </mxGeometry>
        </mxCell>
        <mxCell id="XO_tC2_TJ7MmgfRz-NDF-23" value="Преподаватель" style="swimlane;fontStyle=0;childLayout=stackLayout;horizontal=1;startSize=30;horizontalStack=0;resizeParent=1;resizeParentMax=0;resizeLast=0;collapsible=1;marginBottom=0;" parent="1" vertex="1">
          <mxGeometry x="448" y="510" width="140" height="120" as="geometry" />
        </mxCell>
        <mxCell id="XO_tC2_TJ7MmgfRz-NDF-24" value="+имя" style="text;strokeColor=none;fillColor=none;align=left;verticalAlign=middle;spacingLeft=4;spacingRight=4;overflow=hidden;points=[[0,0.5],[1,0.5]];portConstraint=eastwest;rotatable=0;" parent="XO_tC2_TJ7MmgfRz-NDF-23" vertex="1">
          <mxGeometry y="30" width="140" height="30" as="geometry" />
        </mxCell>
        <mxCell id="XO_tC2_TJ7MmgfRz-NDF-25" value="+" style="text;strokeColor=none;fillColor=none;align=left;verticalAlign=middle;spacingLeft=4;spacingRight=4;overflow=hidden;points=[[0,0.5],[1,0.5]];portConstraint=eastwest;rotatable=0;" parent="XO_tC2_TJ7MmgfRz-NDF-23" vertex="1">
          <mxGeometry y="60" width="140" height="30" as="geometry" />
        </mxCell>
        <mxCell id="XO_tC2_TJ7MmgfRz-NDF-26" value="+" style="text;strokeColor=none;fillColor=none;align=left;verticalAlign=middle;spacingLeft=4;spacingRight=4;overflow=hidden;points=[[0,0.5],[1,0.5]];portConstraint=eastwest;rotatable=0;" parent="XO_tC2_TJ7MmgfRz-NDF-23" vertex="1">
          <mxGeometry y="90" width="140" height="30" as="geometry" />
        </mxCell>
        <mxCell id="XO_tC2_TJ7MmgfRz-NDF-27" value="Бухгалтерия" style="swimlane;fontStyle=0;childLayout=stackLayout;horizontal=1;startSize=30;horizontalStack=0;resizeParent=1;resizeParentMax=0;resizeLast=0;collapsible=1;marginBottom=0;" parent="1" vertex="1">
          <mxGeometry x="620" y="650" width="140" height="120" as="geometry" />
        </mxCell>
        <mxCell id="XO_tC2_TJ7MmgfRz-NDF-28" value="+имя" style="text;strokeColor=none;fillColor=none;align=left;verticalAlign=middle;spacingLeft=4;spacingRight=4;overflow=hidden;points=[[0,0.5],[1,0.5]];portConstraint=eastwest;rotatable=0;" parent="XO_tC2_TJ7MmgfRz-NDF-27" vertex="1">
          <mxGeometry y="30" width="140" height="30" as="geometry" />
        </mxCell>
        <mxCell id="XO_tC2_TJ7MmgfRz-NDF-29" value="+" style="text;strokeColor=none;fillColor=none;align=left;verticalAlign=middle;spacingLeft=4;spacingRight=4;overflow=hidden;points=[[0,0.5],[1,0.5]];portConstraint=eastwest;rotatable=0;" parent="XO_tC2_TJ7MmgfRz-NDF-27" vertex="1">
          <mxGeometry y="60" width="140" height="30" as="geometry" />
        </mxCell>
        <mxCell id="XO_tC2_TJ7MmgfRz-NDF-30" value="+" style="text;strokeColor=none;fillColor=none;align=left;verticalAlign=middle;spacingLeft=4;spacingRight=4;overflow=hidden;points=[[0,0.5],[1,0.5]];portConstraint=eastwest;rotatable=0;" parent="XO_tC2_TJ7MmgfRz-NDF-27" vertex="1">
          <mxGeometry y="90" width="140" height="30" as="geometry" />
        </mxCell>
        <mxCell id="XO_tC2_TJ7MmgfRz-NDF-33" value="" style="shape=flexArrow;endArrow=classic;html=1;rounded=0;endWidth=19;endSize=5.39;" parent="1" edge="1">
          <mxGeometry width="50" height="50" relative="1" as="geometry">
            <mxPoint x="140" y="490" as="sourcePoint" />
            <mxPoint x="140" y="400" as="targetPoint" />
            <Array as="points" />
          </mxGeometry>
        </mxCell>
        <mxCell id="XO_tC2_TJ7MmgfRz-NDF-35" value="" style="shape=flexArrow;endArrow=classic;html=1;rounded=0;" parent="1" edge="1">
          <mxGeometry width="50" height="50" relative="1" as="geometry">
            <mxPoint x="700" y="640" as="sourcePoint" />
            <mxPoint x="700" y="410" as="targetPoint" />
          </mxGeometry>
        </mxCell>
        <mxCell id="XO_tC2_TJ7MmgfRz-NDF-37" value="" style="shape=flexArrow;endArrow=classic;html=1;rounded=0;" parent="1" edge="1">
          <mxGeometry width="50" height="50" relative="1" as="geometry">
            <mxPoint x="500" y="500" as="sourcePoint" />
            <mxPoint x="500" y="410" as="targetPoint" />
          </mxGeometry>
        </mxCell>
        <mxCell id="XO_tC2_TJ7MmgfRz-NDF-39" value="КУРС" style="swimlane;fontStyle=0;childLayout=stackLayout;horizontal=1;startSize=30;horizontalStack=0;resizeParent=1;resizeParentMax=0;resizeLast=0;collapsible=1;marginBottom=0;" parent="1" vertex="1">
          <mxGeometry x="265" y="520" width="110" height="120" as="geometry" />
        </mxCell>
        <mxCell id="XO_tC2_TJ7MmgfRz-NDF-40" value="+название курса" style="text;strokeColor=none;fillColor=none;align=left;verticalAlign=middle;spacingLeft=4;spacingRight=4;overflow=hidden;points=[[0,0.5],[1,0.5]];portConstraint=eastwest;rotatable=0;" parent="XO_tC2_TJ7MmgfRz-NDF-39" vertex="1">
          <mxGeometry y="30" width="110" height="30" as="geometry" />
        </mxCell>
        <mxCell id="XO_tC2_TJ7MmgfRz-NDF-41" value="+" style="text;strokeColor=none;fillColor=none;align=left;verticalAlign=middle;spacingLeft=4;spacingRight=4;overflow=hidden;points=[[0,0.5],[1,0.5]];portConstraint=eastwest;rotatable=0;" parent="XO_tC2_TJ7MmgfRz-NDF-39" vertex="1">
          <mxGeometry y="60" width="110" height="30" as="geometry" />
        </mxCell>
        <mxCell id="XO_tC2_TJ7MmgfRz-NDF-42" value="+" style="text;strokeColor=none;fillColor=none;align=left;verticalAlign=middle;spacingLeft=4;spacingRight=4;overflow=hidden;points=[[0,0.5],[1,0.5]];portConstraint=eastwest;rotatable=0;" parent="XO_tC2_TJ7MmgfRz-NDF-39" vertex="1">
          <mxGeometry y="90" width="110" height="30" as="geometry" />
        </mxCell>
        <mxCell id="XO_tC2_TJ7MmgfRz-NDF-44" value="" style="endArrow=none;html=1;rounded=0;" parent="1" edge="1">
          <mxGeometry width="50" height="50" relative="1" as="geometry">
            <mxPoint x="380" y="560" as="sourcePoint" />
            <mxPoint x="440" y="560" as="targetPoint" />
          </mxGeometry>
        </mxCell>
        <mxCell id="XO_tC2_TJ7MmgfRz-NDF-45" value="" style="endArrow=none;html=1;rounded=0;exitX=1.038;exitY=0.244;exitDx=0;exitDy=0;exitPerimeter=0;" parent="1" source="XO_tC2_TJ7MmgfRz-NDF-13" edge="1">
          <mxGeometry width="50" height="50" relative="1" as="geometry">
            <mxPoint x="380" y="420" as="sourcePoint" />
            <mxPoint x="260" y="558" as="targetPoint" />
          </mxGeometry>
        </mxCell>
        <mxCell id="XO_tC2_TJ7MmgfRz-NDF-46" value="&lt;font style=&quot;vertical-align: inherit&quot;&gt;&lt;font style=&quot;vertical-align: inherit&quot;&gt;читает&lt;/font&gt;&lt;/font&gt;" style="text;html=1;align=center;verticalAlign=middle;resizable=0;points=[];autosize=1;strokeColor=none;fillColor=none;" parent="1" vertex="1">
          <mxGeometry x="380" y="540" width="50" height="20" as="geometry" />
        </mxCell>
        <mxCell id="XO_tC2_TJ7MmgfRz-NDF-47" value="&lt;font style=&quot;vertical-align: inherit&quot;&gt;&lt;font style=&quot;vertical-align: inherit&quot;&gt;посещает&lt;/font&gt;&lt;/font&gt;" style="text;html=1;align=center;verticalAlign=middle;resizable=0;points=[];autosize=1;strokeColor=none;fillColor=none;" parent="1" vertex="1">
          <mxGeometry x="190" y="530" width="70" height="20" as="geometry" />
        </mxCell>
        <mxCell id="XO_tC2_TJ7MmgfRz-NDF-48" value="&lt;font style=&quot;vertical-align: inherit&quot;&gt;&lt;font style=&quot;vertical-align: inherit&quot;&gt;&lt;font style=&quot;vertical-align: inherit&quot;&gt;&lt;font style=&quot;vertical-align: inherit&quot;&gt;Состоят/управляет&lt;/font&gt;&lt;/font&gt;&lt;/font&gt;&lt;/font&gt;" style="text;html=1;align=center;verticalAlign=middle;resizable=0;points=[];autosize=1;strokeColor=none;fillColor=none;" parent="1" vertex="1">
          <mxGeometry x="265" y="290" width="120" height="20" as="geometry" />
        </mxCell>
        <mxCell id="XO_tC2_TJ7MmgfRz-NDF-49" value="&lt;font style=&quot;vertical-align: inherit&quot;&gt;&lt;font style=&quot;vertical-align: inherit&quot;&gt;работает в&lt;/font&gt;&lt;/font&gt;" style="text;html=1;align=center;verticalAlign=middle;resizable=0;points=[];autosize=1;strokeColor=none;fillColor=none;rotation=90;" parent="1" vertex="1">
          <mxGeometry x="478" y="460" width="80" height="20" as="geometry" />
        </mxCell>
        <mxCell id="XO_tC2_TJ7MmgfRz-NDF-51" value="&lt;font style=&quot;vertical-align: inherit&quot;&gt;&lt;font style=&quot;vertical-align: inherit&quot;&gt;работает в&lt;/font&gt;&lt;/font&gt;" style="text;html=1;align=center;verticalAlign=middle;resizable=0;points=[];autosize=1;strokeColor=none;fillColor=none;rotation=90;" parent="1" vertex="1">
          <mxGeometry x="680" y="510" width="80" height="20" as="geometry" />
        </mxCell>
        <mxCell id="XO_tC2_TJ7MmgfRz-NDF-52" value="&lt;font style=&quot;vertical-align: inherit&quot;&gt;&lt;font style=&quot;vertical-align: inherit&quot;&gt;обучается в&lt;/font&gt;&lt;/font&gt;" style="text;html=1;align=center;verticalAlign=middle;resizable=0;points=[];autosize=1;strokeColor=none;fillColor=none;rotation=90;" parent="1" vertex="1">
          <mxGeometry x="120" y="450" width="80" height="20" as="geometry" />
        </mxCell>
        <mxCell id="XO_tC2_TJ7MmgfRz-NDF-53" value="Арендодатель" style="swimlane;fontStyle=0;childLayout=stackLayout;horizontal=1;startSize=30;horizontalStack=0;resizeParent=1;resizeParentMax=0;resizeLast=0;collapsible=1;marginBottom=0;" parent="1" vertex="1">
          <mxGeometry x="620" y="840" width="140" height="120" as="geometry" />
        </mxCell>
        <mxCell id="XO_tC2_TJ7MmgfRz-NDF-54" value="+имя" style="text;strokeColor=none;fillColor=none;align=left;verticalAlign=middle;spacingLeft=4;spacingRight=4;overflow=hidden;points=[[0,0.5],[1,0.5]];portConstraint=eastwest;rotatable=0;" parent="XO_tC2_TJ7MmgfRz-NDF-53" vertex="1">
          <mxGeometry y="30" width="140" height="30" as="geometry" />
        </mxCell>
        <mxCell id="XO_tC2_TJ7MmgfRz-NDF-55" value="+" style="text;strokeColor=none;fillColor=none;align=left;verticalAlign=middle;spacingLeft=4;spacingRight=4;overflow=hidden;points=[[0,0.5],[1,0.5]];portConstraint=eastwest;rotatable=0;" parent="XO_tC2_TJ7MmgfRz-NDF-53" vertex="1">
          <mxGeometry y="60" width="140" height="30" as="geometry" />
        </mxCell>
        <mxCell id="XO_tC2_TJ7MmgfRz-NDF-56" value="+" style="text;strokeColor=none;fillColor=none;align=left;verticalAlign=middle;spacingLeft=4;spacingRight=4;overflow=hidden;points=[[0,0.5],[1,0.5]];portConstraint=eastwest;rotatable=0;" parent="XO_tC2_TJ7MmgfRz-NDF-53" vertex="1">
          <mxGeometry y="90" width="140" height="30" as="geometry" />
        </mxCell>
        <mxCell id="XO_tC2_TJ7MmgfRz-NDF-57" value="" style="endArrow=none;html=1;rounded=0;exitX=0.505;exitY=0.989;exitDx=0;exitDy=0;exitPerimeter=0;entryX=0.5;entryY=0;entryDx=0;entryDy=0;" parent="1" source="XO_tC2_TJ7MmgfRz-NDF-30" target="XO_tC2_TJ7MmgfRz-NDF-53" edge="1">
          <mxGeometry width="50" height="50" relative="1" as="geometry">
            <mxPoint x="690" y="780" as="sourcePoint" />
            <mxPoint x="690" y="830" as="targetPoint" />
          </mxGeometry>
        </mxCell>
        <mxCell id="XO_tC2_TJ7MmgfRz-NDF-58" value="предоставляет отчет" style="text;html=1;align=center;verticalAlign=middle;resizable=0;points=[];autosize=1;strokeColor=none;fillColor=none;rotation=90;" parent="1" vertex="1">
          <mxGeometry x="720" y="800" width="130" height="20" as="geometry" />
        </mxCell>
        <mxCell id="XO_tC2_TJ7MmgfRz-NDF-59" value="&lt;div style=&quot;text-align: left&quot;&gt;&lt;span&gt;+добавить студента&lt;/span&gt;&lt;/div&gt;&lt;div style=&quot;text-align: left&quot;&gt;&lt;span&gt;+создать студента&lt;/span&gt;&lt;/div&gt;&lt;div style=&quot;text-align: left&quot;&gt;&lt;span&gt;+переместить студента&lt;/span&gt;&lt;/div&gt;&lt;div style=&quot;text-align: left&quot;&gt;&lt;span&gt;+добавить методиста&lt;/span&gt;&lt;/div&gt;+" style="rounded=0;whiteSpace=wrap;html=1;" parent="1" vertex="1">
          <mxGeometry x="80" y="330" width="140" height="70" as="geometry" />
        </mxCell>
      </root>
    </mxGraphModel>
  </diagram>
</mxfile>
